<?xml version="1.0" encoding="utf-8"?>
<!-- Generator: Adobe Illustrator 22.0.1, SVG Export Plug-In . SVG Version: 6.00 Build 0)  -->
<svg version="1.1" id="Layer_1" xmlns="http://www.w3.org/2000/svg" xmlns:xlink="http://www.w3.org/1999/xlink" x="0px" y="0px"
	 viewBox="0 0 110.2 81.4" style="enable-background:new 0 0 110.2 81.4;" xml:space="preserve">
<style type="text/css">
	.st0{fill:#244A9A;}
	.st1{fill:#E52322;}
	.st2{fill:#FFFFFF;}
	.st3{fill:none;stroke:#010202;stroke-width:0.25;stroke-miterlimit:10;}
	.st4{fill:#2B4B9B;}
	.st5{fill:#020203;}
	.st6{fill:#E52521;}
	.st7{fill:#F6E820;}
	.st8{fill:#297331;}
	.st9{fill:#F2A6B2;}
	.st10{fill:#EA6F15;}
	.st11{fill:#B01917;}
	.st12{fill:#24305E;}
	.st13{fill:#C1B504;}
	.st14{fill:#183D1E;}
	.st15{fill:#50235F;}
	.st16{fill:#B54E17;}
	.st17{fill:#DE6562;}
	.st18{fill:#556796;}
	.st19{fill:#EEE566;}
	.st20{fill:#486D4B;}
	.st21{fill:#876D8E;}
	.st22{fill:#E39356;}
	.st23{fill:#010202;}
	.st24{fill:none;stroke:#010202;stroke-miterlimit:10;}
	.st25{fill:none;stroke:#000000;stroke-width:3;stroke-miterlimit:10;}
	.st26{filter:url(#Adobe_OpacityMaskFilter);}
	.st27{opacity:0.25;mask:url(#SVGID_1_);}
	.st28{filter:url(#Adobe_OpacityMaskFilter_1_);}
	.st29{opacity:0.25;mask:url(#SVGID_2_);}
	.st30{filter:url(#Adobe_OpacityMaskFilter_2_);}
	.st31{opacity:0.25;mask:url(#SVGID_3_);}
	.st32{filter:url(#Adobe_OpacityMaskFilter_3_);}
	.st33{opacity:0.25;mask:url(#SVGID_4_);}
	.st34{filter:url(#Adobe_OpacityMaskFilter_4_);}
	.st35{opacity:0.25;mask:url(#SVGID_5_);}
	.st36{filter:url(#Adobe_OpacityMaskFilter_5_);}
	.st37{opacity:0.25;mask:url(#SVGID_6_);}
	.st38{filter:url(#Adobe_OpacityMaskFilter_6_);}
	.st39{opacity:0.25;mask:url(#SVGID_7_);}
	.st40{filter:url(#Adobe_OpacityMaskFilter_7_);}
	.st41{opacity:0.25;mask:url(#SVGID_8_);}
	.st42{fill:none;stroke:#595E67;stroke-miterlimit:10;}
	.st43{fill:none;}
	.st44{fill:none;stroke:#595E67;stroke-miterlimit:10;stroke-dasharray:6.1268,6.1268;}
	.st45{clip-path:url(#SVGID_10_);}
	.st46{fill:none;stroke:#CFCECE;stroke-miterlimit:10;}
	.st47{fill:none;stroke:#000000;stroke-miterlimit:10;}
	.st48{fill:url(#SVGID_11_);}
	.st49{filter:url(#Adobe_OpacityMaskFilter_8_);}
	.st50{opacity:0.15;mask:url(#SVGID_12_);}
	.st51{fill:url(#SVGID_13_);}
	.st52{filter:url(#Adobe_OpacityMaskFilter_9_);}
	.st53{opacity:0.15;mask:url(#SVGID_14_);}
	.st54{fill:url(#SVGID_15_);}
	.st55{filter:url(#Adobe_OpacityMaskFilter_10_);}
	.st56{opacity:0.15;mask:url(#SVGID_16_);}
	.st57{fill:url(#SVGID_17_);}
	.st58{filter:url(#Adobe_OpacityMaskFilter_11_);}
	.st59{opacity:0.15;mask:url(#SVGID_18_);}
	.st60{fill:url(#SVGID_19_);}
	.st61{filter:url(#Adobe_OpacityMaskFilter_12_);}
	.st62{opacity:0.15;mask:url(#SVGID_20_);}
</style>
<g>
	<path d="M110.2,0H78.8L66.4,38.4H49.9c-1-4.1-4.8-7.2-9.2-7.2c-5.2,0-9.5,4.3-9.5,9.5c0,5.2,4.3,9.5,9.5,9.5c4.5,0,8.3-3.1,9.2-7.3
		h16.4l12.5,38.5h31.4L97,40.7L110.2,0z"/>
	<g>
		<path d="M64.7,45.2H51.6c-1.8,4.4-6,7.3-10.9,7.3c-6.5,0-11.8-5.3-11.8-11.8c0-6.5,5.3-11.8,11.8-11.8c4.8,0,9,2.9,10.8,7.2h13.2
			l7.1-21.7C64.3,5.6,53.2,0,40.7,0C18.2,0,0,18.2,0,40.7s18.2,40.7,40.7,40.7c12.5,0,23.6-5.6,31.1-14.4L64.7,45.2z"/>
	</g>
</g>
</svg>
